<svg width="6" height="15" viewBox="0 0 6 15" fill="none" xmlns="http://www.w3.org/2000/svg">
<path d="M0.435938 15V14.06L1.51594 13.82C1.52927 13.34 1.53594 12.82 1.53594 12.26C1.53594 11.7 1.53594 11.2133 1.53594 10.8V9.84C1.53594 9.29333 1.52927 8.84 1.51594 8.48C1.51594 8.10667 1.5026 7.72 1.47594 7.32L0.235938 7.14V6.36L4.43594 5.02L4.77594 5.24L4.71594 8.14V10.8C4.71594 11.2133 4.71594 11.7067 4.71594 12.28C4.71594 12.84 4.7226 13.3667 4.73594 13.86L5.73594 14.06V15H0.435938ZM3.09594 3.54C2.62927 3.54 2.22927 3.39333 1.89594 3.1C1.5626 2.79333 1.39594 2.41333 1.39594 1.96C1.39594 1.49333 1.5626 1.11333 1.89594 0.819999C2.22927 0.513332 2.62927 0.359999 3.09594 0.359999C3.5626 0.359999 3.9626 0.513332 4.29594 0.819999C4.62927 1.11333 4.79594 1.49333 4.79594 1.96C4.79594 2.41333 4.62927 2.79333 4.29594 3.1C3.9626 3.39333 3.5626 3.54 3.09594 3.54Z" fill="white"/>
</svg>
